<svg id="Layer_1" xmlns="http://www.w3.org/2000/svg" viewBox="0 0 1870.6 388.1"><style>.st0{fill:#fff}</style><g id="Santander-Logo"><path id="path2996" class="st0" d="M221.3 7.2c-1.3 11.5-.8 23.9 2.6 33.8 4.5 13.4 10.6 23.1 33.3 52.7 24 31.2 31.6 42.5 37.3 58.7 4.7 13.2 4.8 20.9 2.8 32.9 21 4 55.4 15.2 78.5 29 21.4 13.2 37 30.2 42.7 46.8 3.4 9.8 3.2 25-.3 34.5-3.4 9.1-8.1 16.7-15.1 24.3-27.6 30.3-82.3 52-148.2 58.9-14.6 1.5-50.3 2.6-62.5 1.9-88-5.1-158.8-35.5-178.9-76.8-8.4-17.2-8.2-32 .7-49 7.3-14 27.2-31.3 50.7-44 22.6-10.9 43.8-19 66.5-25.4 1.1 14.8 30 50.3 39.6 62.8 20.9 27.3 29.1 40.3 35 50.8 3.5 6.3 5.5 10.3 4.5 22.2 0 0 8-7.3 11.1-13.4 3.9-8 5.3-16.1 4.6-26.5-.9-12.5-3-20.2-9-32.5-5.8-11.9-14.2-24-30.1-43.5-22.4-27.5-30.7-42.6-34.2-62.3-3.8-21.8 2.3-45 14.9-56.3 2.7-2.5 7.1-4.8 7.1-4.8s-.4 5.6-.4 12c0 13.5 1.5 20.5 6.7 30.8 6.4 12.8 15.3 24.7 42.6 57.2 24.2 28.7 31.7 43.3 31.7 61.6v8.8s6.4-4.9 9.3-9.3c9.4-14.1 10.8-36.2 3.7-55.7-4.9-13.4-12.8-25.6-36.2-55-23.8-30-33.8-54-33.8-74-.2-20.2 4.1-39.3 22.8-51.2z"/><path id="path3010" class="st0" d="M669 301.7c.5-6.7 0-13.3-.7-16.8-2.9-13.8-13-27.6-27.8-37.8-4.5-3.1-17.9-10-31.8-16.5-27.8-12.9-35.6-17.5-42.5-25.3-6.8-7.6-9.3-14.4-9.3-25.2 0-7.2.4-9.4 2.7-14.5 7.6-16.5 26.4-25.3 48.4-22.5 12.9 1.6 19.7 4.5 27.4 11.7 8 7.5 12 16.1 14.2 30.3l.7 8h12l-1-55-4-1c-3-.8-23-4.5-33.5-5.9-15.8-2-22.1-2.2-31.4-1.2-18 2.1-32.8 8.9-44 20.2-11.4 11.5-17 23.8-17.8 39.3-.9 16 4.2 29.2 15.6 40.5 9.6 9.5 13.7 12 43.3 26.1 37.9 18 46.5 23.3 52.2 36.9 5 11.7 5.4 24.9.2 35.5-13.2 27-54.7 34-80.6 13.7-9.7-7.6-16.7-19.1-19-30.9l-1.2-6.3h-10.2l1.8 52.7s19.7 5.3 28.9 6.3c6.9.7 13.8 2.1 20.8 2.1 14 0 20.5 1.8 35-3 14.9-4.9 47.9-14.9 51.6-61.4z"/><path id="path3798" class="st0" d="M761.3 215.2c16 0 30 7 36.6 17.3 6.3 9.8 6.4 18.2 6.4 23.7v76c0 9 6.5 11.9 15.9 8.7l7.1-2.7v10l-35 15.3c-4.1 1.8-6.8-2.3-8.8-10l-2.2-7.3-5.8 4.5c-8.2 6.4-19.2 12.5-35.2 12.5-15.1.1-25-2-34.8-17.7-4.6-9.1-5.1-21.2-1.2-30 4.5-10.2 13.4-15.4 50.8-29.8l25.3-9.5v-7c0-26-7-34-16-39-7.2-4-16.8-3-26 3-7.6 4.9-9.9 13.3-6 21.9 3 6.6 2 4.5 2 4.8l-20.5 10.8s-3.5-6.1-4.6-9.4c-4.7-15.5 1.3-24.2 24.5-36.9 12-6.8 19.2-9.2 27.5-9.2zm19 72s-32.9 13.9-39.2 17.1c-5.1 2.6-10.8 7.2-12.8 10.9-2.5 4.9-2.1 13.7 1 19 2.9 5 6.4 9 11 11 1.6.7 7.2 2 11 2 7.8 0 16-3.2 24.4-10.2l4.6-3.8v-46z"/><path id="path3812" class="st0" d="M883.3 215.2v26.9l6.9-6.5c14.9-14.1 29.1-20.4 40.1-20.4 25 0 48 22 47 53v72c0 8 2 13 10 13h13v10h-69v-10h10c8 0 11-5 11-13v-72c0-15-5.5-22.5-10-27-6-6-13.3-7.7-24-7-8.3.5-16.8 4.9-26.6 12.8l-6.4 5.2v93c0 5 2 8 7 8h13v10h-68v-10h9c8 0 14-5 14-13v-77c0-20-6-26-23-17v-10.7c11-3.3 31-13.3 42-20.3h4z"/><path id="path3825" class="st0" d="M1076.3 363.2c9 0 11.1-1 19.5-8.1l16.5-13.9-4-7-7.4 3.9c-11 5.9-19.6 7.1-30.6 2.1-9.4-4.3-15-19-15-27v-81h46l5-14h-51v-46h-5c-12 22-30 43-52 56v4h32v81c0 19 7 33 18 41 10.4 7.6 17 9 28 9z"/><path id="path3810" class="st0" d="M1182.3 215.2c16 0 30 7 36.6 17.3 6.3 9.8 6.4 18.2 6.4 23.7v76c0 9 6.5 11.9 15.9 8.7l7.1-2.7v10l-35 15.3c-4.1 1.8-6.8-2.3-8.8-10l-2.2-7.3-5.8 4.5c-8.2 6.4-19.2 12.5-35.2 12.5-15.1.1-25-2-34.8-17.7-4.6-9.1-5.1-21.2-1.2-30 4.5-10.2 13.4-15.4 50.8-29.8l25.3-9.5v-7c0-26-7-34-16-39-7.2-4-16.8-3-26 3-7.6 4.9-9.9 13.3-6 21.9 3 6.6 2 4.5 2 4.8l-20.5 10.8s-3.5-6.1-4.6-9.4c-4.7-15.5 1.3-24.2 24.5-36.9 12-6.8 19.2-9.2 27.5-9.2zm19 72s-32.9 13.9-39.2 17.1c-5.1 2.6-10.8 7.2-12.8 10.9-2.5 4.9-2.1 13.7 1 19 2.9 5 6.4 9 11 11 1.7.7 7.2 2 11 2 7.8 0 16-3.2 24.4-10.2l4.6-3.8v-46z"/><path id="path3823" class="st0" d="M1304.3 215.2v26.9l6.9-6.5c14.9-14.1 29.1-20.4 40.1-20.4 25 0 48 22 47 53v72c0 8 2 13 10 13h13v10h-69v-10h10c8 0 11-5 11-13v-72c0-15-5.5-22.5-10-27-6-6-13.3-7.7-24-7-8.3.5-16.8 4.9-26.6 12.8l-6.4 5.2v93c0 5 2 8 7 8h13v10h-68v-10h9c8 0 14-5 14-13v-77c0-20-6-26-23-17v-10.7c11-3.3 31-13.3 42-20.3h4z"/><path id="path3830" class="st0" d="M1601.3 346.2v-10c-11 5-16 5-19.8 2.5-5.4-3.6-5.2-10.5-5.2-10.5v-220h-3c-14.5 9.2-32 18-47 23v11c8-3 14-4.6 19-2 3.3 1.8 5 4 5 9V224l-5.9-2.4c-11.8-4.8-17.9-5.9-32.1-5.8-11.9 0-14.4.3-21.5 2.7-32.9 11-53.9 43.1-52.2 79.7 1 20.9 7 37.3 20.7 49.1 14 12 26 16 40 16 19 0 30-3.8 43.8-13.1 4.2-2.9 8.2-5.9 8.2-5.9 1 10 3.4 16 7 21l43-19.1zm-103.7-1.8c-18.7-6.7-32.3-29.7-34-57.7-2.2-35 17.2-59.5 47.1-59.5 12.6 0 22.2 3.4 33.8 12.1l5.8 4.3-.5 89.9-6.4 3.9c-10.9 6.6-16.2 8.1-29.1 8.6-9.4.2-12.5-.1-16.7-1.6z"/><path id="path3835" class="st0" d="M1708.8 361.7c8.3-2.2 19.5-6.5 32.5-14.5v-10c-11 8-28.4 13-44 13-16.9 0-30-5-39-15-13.3-14.8-17-27-19.3-57h105.3s0-15-6-29c-4.1-9.6-8-17-19-24-10.3-6.6-24.2-9.3-36-9.4-12.3-.1-14.2.2-20.8 2.6-31.1 11.4-52.3 43.6-49.7 75.7 2.5 31 20.6 55.9 48 65.9 12 4.3 34.9 5.2 48 1.7zm-57.5-123.5c7-7 15-11 28-11 12 0 20 3 28 11 6 6 9 11 10.3 28H1639c1.3-12 5.3-21 12.3-28z"/><path id="path3842" class="st0" d="M1803.3 215.2v33c5.3-9.1 10-15 19-24 6.9-6.9 16-9 23-9 5 0 18 4 18 4v30h-5c-2-8-9-12-19-12-13 0-21.5 5.3-26.8 13.1-5.2 7.9-7.3 11.9-7.3 28.9v66c0 5 2 8 7 8h13v10h-68v-10h9c8 0 14-5 14-13v-77c0-22-8-21-22-15v-10c13-5 29-12 41-23h4.1z"/></g></svg>